<?xml version="1.0" encoding="utf-8"?>
<!-- Generator: Adobe Illustrator 21.0.0, SVG Export Plug-In . SVG Version: 6.00 Build 0)  -->
<svg version="1.1" id="图层_1" xmlns="http://www.w3.org/2000/svg" xmlns:xlink="http://www.w3.org/1999/xlink" x="0px" y="0px"
	 viewBox="0 0 604.4 174.7" style="enable-background:new 0 0 604.4 174.7;" xml:space="preserve">
<style type="text/css">
	.st0{fill:#FFFFFF;}
	.st1{fill:#FFAB19;}
	.st2{fill:#FFFEFE;}
	.st3{fill:#FFFFFE;}
</style>
<g>
	<path class="st0" d="M83.2,17.8c1-2.4,2.7-4.5,4.2-6.6c1-1.4,2.2-2.5,3.5-3.6c3.4-2.8,7.3-4.4,11.6-5.3c4.2-0.9,8.4-1.8,12.8-1.5
		c3.5,0.2,6.9,1.3,10.3,2.1c5.5,1.2,9.8,4.4,13.2,8.9c2.3,2.9,3.9,6,4.4,9.7c0.2,1.8,0.9,2.9,3,3.1c1.5,0.1,3,0.6,4.4,1.1
		c1.1,0.4,1.7,0,2.2-0.9c0.1-0.3,0.4-0.5,0.5-0.8c3.7-6.3,9.6-10.1,15.7-13.7c2.6-1.5,5.5-2.2,8.4-2.9c10.5-2.5,7.3-2.1,16.9,0
		c2.2,0.5,4.4,0.9,6.2,2.3c0.6,0.5,1.1,0.3,1.7-0.2c8.5-6.3,6-5.1,17.1-7.9c6.6-1.6,13.1-1.8,19.7,0c0.6,0.2,1.2,0.3,1.9,0.4
		c5.4,0.8,10.3,3,14.4,6.6c0.8,0.7,1.4,0.7,2.3,0.3c4.2-1.6,8.6-2.4,13-3.2c0.8-0.1,1.6-0.1,2.4,0c9.4,1.4,18.1,4.7,25.2,11.2
		c1.8,1.6,5.9,7.5,7,10c0.7,0.2,0.9-0.5,1.3-0.8c3.1-3,6.6-5.3,10.2-7.5c1.6-1,3.4-1.3,5.2-1.7c1.7-0.4,3.4-0.7,5.1-1.2
		c2.3-0.6,4.7-1,7.1-0.4c1.4,0.3,2.3-0.1,3.2-1.3c4.5-5.8,10.2-10,17.5-11.8c2.4-0.6,4.8-1.1,7.2-1.7c2.5-0.6,4.9-0.6,7.4,0
		c2.8,0.7,5.6,1.3,8.4,2c1.6,0.4,3.1,1.1,4.6,2.1c3.9,2.6,7.5,5.4,10,9.5c1,1.7,1.3,1.7,2.8,0.5c2.4-2,5.2-3.1,8.2-3.7
		c3.1-0.6,6.2-1.7,9.4-2c2.4-0.2,4.8,0,7.1,0.5c2.9,0.6,5.7,1.4,8.6,2c2.5,0.5,4.7,1.5,6.7,3c2.9,2.1,6.1,3.8,8,7
		c0.9-0.3,1.2-1,1.5-1.5c0.9-1.3,2-2.2,3.2-3.2c3-2.4,6.3-4.1,10.1-4.7c1.2-0.2,1.9-0.8,2.7-1.8c3.1-3.8,6.8-6.7,11.7-7.8
		c4.1-0.9,8.1-2.2,12.5-2.2c3.8,0.1,7.4,1.3,11,2c2.3,0.4,4.5,1.2,6.3,2.7c0.8,0.7,1.7,0.8,2.7,0.5c4-1.5,7.9-1.3,11.9,0.1
		c1.6,0.6,3.3,0.7,4.7-0.7c0.3-0.3,0.7-0.4,1.1-0.5c8.4-2.6,16.9-4.4,25.7-1.9c2.5,0.7,5,1.2,7.5,1.8c2.2,0.5,4.1,1.5,6.1,2.7
		c3.7,2.3,6.3,5.6,8.7,9.1c0.8,1.2,1.1,2.6,1.4,4c0.2,1,0.7,1.5,1.8,1.5c4.7,0,9.2,1.3,13.6,2.7c3.6,1.2,6.6,3.6,9.1,6.4
		c3.2,3.7,5.4,8,6.4,12.9c0.9,4.6,1.7,9.1,1.3,13.8c-0.3,3.4-1.5,6.5-2.1,9.8c-0.9,5-3.9,8.7-7.1,12.3c-0.5,0.6-0.9,1-1,1.8
		c-1,8.1-3.1,16-5.2,23.9c-0.5,1.8-0.3,2.9,1.1,4.2c3.5,3.1,6.4,6.7,9.1,10.5c1.5,2.1,2.6,4.4,3.1,6.9c0.7,3.1,1.4,6.2,2.1,9.3
		c0.3,1.5,0.3,3-0.1,4.5c-0.7,3.1-1.4,6.2-2.2,9.3c-0.1,0.6-0.3,1.3-0.6,1.8c-2.3,3.9-4.7,7.8-8.4,10.6c-0.3,0.2-0.7,0.5-0.9,0.7
		c-5.5,5.1-12.5,6.9-19.6,8.3c-0.9,0.2-1.7,0.1-2.6-0.1c-1.9-0.5-3.9-1-5.8-1.3c-4.7-0.7-8.4-3.3-12.1-6c-2.8-2.1-1.8-2-4.6,0
		c-2.6,1.8-5,4-8,5.2c-7,2.9-14.2,4.9-21.9,4.4c-2.4-0.2-4.7-1-7-1.5c-1-0.2-2-0.4-3,0c-4.9,1.6-9.9,1.7-14.9,1.6c-2,0-4-0.1-6,0
		c-5.7,0.3-11.3-0.4-16.8-2.1c-1.2-0.3-2.2-0.8-3.3-1.4c-4-2.4-7.1-5.6-9.6-9.6c-1.1-1.8-1.6-3.7-2.3-6c-1.6,2.2-2.9,4.1-4.3,6
		c-4.3,5.5-9.5,9.6-16.5,11.1c-2.4,0.5-4.8,1.2-7.2,1.7c-4.3,1-8.5,0.1-12.8-0.7c-13.4-2.4-25.2-8.7-36.4-15.9
		c-2.4-1.5-4-1.7-6.5-0.2c-7.6,4.7-15.7,8.6-23.9,12.1c-7,3-14.3,4.5-21.8,5.5c-2.2,0.3-4.3-0.1-6.4-0.5c-2.9-0.6-5.7-1.4-8.6-2
		c-3.2-0.7-5.8-2.5-8.4-4.4c-2-1.5-2.1-1.5-4.1,0.1c-1.9,1.5-4.1,2.3-6.5,3c-6.1,1.7-12.3,2.5-18.7,2.3c-9.4-0.2-18.9,0-28.3-0.1
		c-5.6,0-11-1.5-16.1-3.4c-4.3-1.6-8-4.3-10.7-8.2c-2.1-3.1-2.2-3.1-5.2-0.8c-5.2,3.9-10.7,7.3-16.7,9.8c-5.4,2.2-11.2,3.3-16.9,4.3
		c-1.6,0.3-3.2-0.2-4.7-0.5c-1.3-0.2-2.5-0.6-3.7-0.9c-4.3-0.8-8.1-2.3-11.4-5.2c-1-0.9-1.9-0.9-3.3-0.5c-7.1,2-14.3,3.8-21.8,4.5
		c-9.4,0.8-18.8,1.2-28.2,1.5c-7.7,0.3-15.3,0-23-0.1c-3.2-0.1-6.3-1.2-9.4-1.7c-5.8-0.9-10.3-4.2-14.5-8.2
		c-1.3,0.9-2.7,1.8-3.9,2.9c-4.2,3.5-9.1,5-14.2,6.6c-7,2.2-13.4,0.5-19.9-1.3c-1.9-0.5-3.5-1.9-5.2-2.9c-4.5-2.6-7.6-6.5-10.4-10.8
		c-0.3-0.5-0.7-1.1-0.9-1.7c-1.8-6-4-12.1-3.2-18.5c0.6-4.4,1.5-8.9,3.2-13c1.3-3.2,3.7-6,6.1-8.6c0.8-0.8,1.7-1.4,2.1-2.7
		c-1.9-1.3-3.5-2.9-4.9-4.8c-4.8-6.3-6.1-13.6-6-21.2c0-3.4,1.2-6.6,2-9.8C4.3,71.4,5,65,5.9,58.7c0.6-4.6,1.5-9.2,3.2-13.5
		c1.8-4.4,4.5-8.3,8.5-11c0.1-0.1,0.3-0.2,0.4-0.3c2-1,2.6-2.5,2.7-4.8c0.2-4.2,1.1-8.3,2.8-12.1c1.6-3.6,4.1-6.8,7.4-9.3
		c3.5-2.7,7.3-4.5,11.7-5.3c1.6-0.3,3.1-0.8,4.7-1.1c4.1-0.8,8.3-0.8,12.4,0.2c1.5,0.4,2.9,0.9,4.4,1.1c5,0.6,9,3.3,12.6,6.5
		c2.6,2.2,4.3,5.1,5.9,8.1C82.7,17.5,82.7,17.7,83.2,17.8z"/>
	<path class="st1" d="M229,118.3c0-7.2,0-14.4,0-21.6c0-2.4-1.8-3.5-4-2.5c-0.6,0.3-0.8,0.8-0.8,1.4c0,1.4-0.1,2.7,0,4.1
		c0.4,7.4-1.5,14.2-4.4,20.9c-6.9,15.6-18.6,26.3-34.3,32.8c-2.5,1-5.1,1.8-7.9,1.9c-3.6,0.2-6.8-0.9-9.3-3.6
		c-3.8-4.2-6.1-9.2-6.9-14.8c-0.6-4.2,1.1-7.6,4.4-10.3c2-1.5,4.2-2.6,6.5-3.6c2.5-1,4.8-2.2,7-3.6c7.3-4.8,11.7-11.6,13.4-20.2
		c0.9-4.8,0.7-5-4.2-5.1c-4.9,0-9.8,0-14.6,0c-1.7,0-3.3-0.3-5-0.6c-2.9-0.6-4.6-2.3-5.2-5.2c-0.4-2-0.6-4-0.7-5.9
		c-0.3-3.8,0-7.7,0.8-11.4c0.2-1.2,0.7-2.3,1.3-3.3c1-1.7,2.5-2.6,4.5-2.7c1.9,0,3.7,0.2,5.5,0.5c1.9,0.4,3.3,1.6,4.4,3.2
		c1.1,1.5,2.2,3,3.5,4.3c3.6,3.6,7.9,4.9,12.7,3.8c6.6-1.4,12.1-4.9,16.4-10.2c3.4-4.2,4.4-9.1,2.7-14.2c-1.4-4.3-1.8-8.6-1.7-13
		c0.1-3,0-5.9,0-8.9c0.1-5.5,2.4-8.4,7.7-9.8c5.6-1.4,11.3-1.4,16.8,0c5.2,1.3,7.4,4,7.6,9.4c0.2,5.6,0.1,11.2,0,16.8
		c0,2.2-0.8,4.2-1.5,6.3c-0.5,1.3-1,2.7-1.3,4.1c-1.4,5.6,0.4,10.1,5,13.5c3.8,2.8,8.1,4.4,12.6,5.7c2.5,0.8,5.2,1.1,7.8,1.2
		c3.1,0.1,5.8-1,8.1-3.1c1.9-1.8,3.4-3.8,4.6-6.1c0.9-1.8,2.4-2.7,4.4-2.9c6.2-0.8,9,1.1,10.2,7.3c1,5.2,0.8,10.3-0.3,15.5
		c-0.1,0.6-0.4,1.2-0.6,1.8c-1.1,2.9-2.9,4.1-6,4.2c-8,0-16,0-24,0c-0.7,0-1.4,0-2.2,0c-2.2,0.1-2.7,0.6-2.7,2.7c0,8.3,0,16.6,0,25
		c0,2.1,0.4,2.5,2.5,2.6c0.2,0,0.5,0,0.7,0c2.7,0,3.2-0.3,4-2.8c0.2-0.6,0.3-1.2,0.5-1.8c2.6-8.1,8-11.2,16.3-9.3
		c3.4,0.8,6.5,2.1,9.5,3.9c4.5,2.8,6.1,6.3,5.3,11.6c-1.1,7-3.5,13.6-6.6,19.9c-2.5,5.3-6.7,7.7-12.5,7.7c-11.9,0-23.8,0-35.8,0
		c-2.7,0-5.2-0.5-7.7-1.5c-2.5-1-4.2-2.8-5.1-5.4c-0.8-2.3-1.3-4.6-1.3-7C229.1,132.5,229.1,125.4,229,118.3
		C229.1,118.3,229,118.3,229,118.3z"/>
	<path class="st1" d="M430.8,42.4c0.1,3.2-0.5,6.4-1.6,9.4c-5.3,15.4-11.6,30.5-20.2,44.4c-2.4,3.9-5.1,7.6-7.9,11.1
		c-1.9,2.4-1.9,2.8,0.7,4.4c6.8,4.3,13.8,8.3,21.4,11.2c4,1.5,7.8,3.4,10.8,6.6c4.2,4.4,5.7,9.4,3.5,15.2c-2.2,5.8-6.5,9.1-12.7,9.9
		c-5.8,0.7-11.3-0.6-16.6-2.7c-9-3.6-17.3-8.6-25.5-13.8c-2.2-1.4-4.4-3-6.5-4.5c-2.1-1.4-2.1-1.5-4.2-0.1
		c-11.2,7.4-23,13.6-35.3,18.8c-5.3,2.3-10.8,3.3-16.6,2.7c-6.2-0.6-11.3-4.5-12.5-10.2c-1.4-6.6,0.1-12.5,5.5-17.1
		c4-3.3,8.6-5.5,13.4-7.2c6.7-2.4,13.1-5.5,19.2-9.2c0.3-0.2,0.7-0.4,1-0.6c2.2-1.4,2.3-1.5,0.5-3.6c-10.6-12.2-18.9-25.9-26.2-40.3
		c-2-3.9-3.6-7.8-4.4-12.1c-0.4-2.4-0.7-4.7-0.4-7.1c1-7.6,8.7-14,16.3-13.3c5.8,0.5,10,3.5,13.2,8.1c1,1.5,1.8,3,2.4,4.7
		c5.8,13.8,14.1,26.1,23.6,37.7c2.5,3,2.9,3,5.4-0.1c7.6-9.6,14.4-19.6,18.2-31.3c1.1-3.3,1.7-6.7,2.7-10c0.7-2.5,1.6-4.8,2.7-7.1
		c2.7-5.6,7.2-8.2,13.3-8.2c3.1,0,6.2,0.4,9.1,1.6c4.8,2,7.4,5.6,7.7,10.9C430.8,41.1,430.8,41.7,430.8,42.4z"/>
	<path class="st1" d="M97.3,154c-5,0-10.1,0-15.1,0c-2,0-4-0.3-5.9-0.9c-2.1-0.7-3.8-2-4.8-4.1c-0.8-1.6-0.6-2.6,0.7-3.6
		c4.5-3.4,7-8,8.6-13.2c1.3-4.1,1.3-4,5.6-4.2c3.8-0.1,7.7-0.2,11.5-0.4c1.8-0.1,2-0.2,2-2.2c0-2.9,0-5.8,0-8.6
		c0-1.9-0.4-2.4-2.4-2.4c-2.8-0.1-5.6,0-8.4,0c-1.9,0-3.8-0.1-5.7-0.6c-2.7-0.7-4.3-2.3-4.9-5c-0.6-2.6-0.9-5.2-0.9-7.8
		c-0.1-7.2,0-14.4,0-21.6c0-1.8,0.5-3.2,1.9-4.4c1.6-1.4,2.9-3.2,4.1-5c3.1-4.7,3.6-9.6,1.7-14.9c-0.8-2.3-1.9-4.4-3.3-6.3
		c-0.4-0.5-0.8-1-1.1-1.6c-1.1-2-0.7-3.3,1.5-4.1c1.6-0.6,3.2-0.8,4.9-0.8c3.4,0,6.9,0,10.3-0.1c2.2,0,2.3-0.2,2.4-2.3
		c0-3.3,0-6.6,0.1-9.8c0.2-6.6,3.1-9.6,9.7-10c3-0.2,6.1-0.3,9.1,0.5c4.2,1,6.2,3.3,6.7,7.7c0.5,3.5,0.2,7,0.3,10.5
		c0,3.5,0,3.5,3.5,3.5c2.7,0,5.4,0,8.2,0c1.3,0,2.5,0.2,3.8,0.4c3.6,0.7,5.8,2.8,6.8,6.3c0.6,2.1,0.9,4.2,0.9,6.4
		c0,15.8,0,31.5,0,47.3c0,1.1-0.1,2.2-0.4,3.3c-0.3,1.1-1,1.4-2,1.1c-1.2-0.3-2.2-0.9-3.2-1.6c-7.3-4.5-17.4-3.2-22.7,6.1
		c-1.3,2.3-1.2,4.8-0.7,7.2c0.4,2.1,1.3,4.1,2.4,6c0.8,1.5,3.1,2.1,4.6,1.5c0.4-0.2,0.6-0.5,0.6-0.9c0-0.6-0.2-1.1-0.4-1.6
		c-0.4-0.9-0.8-1.8-1.2-2.6c-2.3-5.2-1.2-8.5,3.4-11.8c3.6-2.5,9.5-1.8,12.4,1.1c7.4,7.7,11.8,16.6,12.2,27.4c0,1.1,0,2.2-0.1,3.4
		c-0.4,4.1-2.5,7-6.3,8.6c-3.3,1.4-6.7,2-10.2,2.4C124,153.6,110.6,154.1,97.3,154z"/>
	<path class="st1" d="M539.1,20.6c3.1-0.1,6.5,0.5,9.8,1.5c3.8,1.1,5.5,3.4,5.6,7.4c0.1,2.9-0.7,5.7-1.5,8.5c-0.8,3-0.8,3,2.4,3
		c5.8,0,11.7,0,17.5,0c0.6,0,1.3,0,1.9,0c5.9,0.2,9.2,3.1,9.8,9c0.4,3.5,0.3,7-0.4,10.5c-0.3,1.4-0.8,2.8-1.6,4
		c-1.1,1.6-2.5,2.8-4.5,2.8c-1.9,0-2.4,0.8-2.5,2.7c-0.2,2-0.3,4-0.5,6c-0.9,10.9-3.2,21.5-7.3,31.6c-1.7,4.2-2.3,3.8,1.4,8
		c3.4,3.9,7,7.7,10.7,11.3c2.8,2.7,4.5,6,4.9,9.9c0.4,3.7-0.4,7-2.9,9.8c-2.1,2.3-4.6,4-7.4,5.2c-2.4,1-4.8,0.9-7.2-0.2
		c-3.1-1.4-5.7-3.6-8.1-5.9c-2.7-2.5-5.1-5.3-7.5-8.1c-1.4-1.7-1.8-1.7-3.4-0.1c-3.9,4.1-7.9,8-12.4,11.3c-3.4,2.5-6.9,4.6-11.1,5.5
		c-3.6,0.7-7.2,0.6-10.7-0.3c-1.9-0.5-3.5-1.7-4.6-3.3c-2.1-3.1-3.5-6.5-3.7-10.2c-0.3-4.6,1.9-8,6.2-9.8c2.5-1,5.1-1.3,7.7-1.4
		c1.4-0.1,2.9-0.1,4.3-0.4c5.1-1.2,7.6-3.6,8.1-8.7c0.6-5.4,0.4-10.7-1.4-15.9c-1.1-3.2-2.9-5.9-6.5-6.8c-1.1-0.3-1.1-0.9-0.7-1.8
		c0.6-1.6,1-3.2,1.2-4.9c0.3-2,0.5-4-0.1-5.9c-0.3-1.1-0.1-1.9,1-2.3c4.1-1.8,5.5-5.4,6-9.4c0.5-4.1,0.4-8.3-0.3-12.4
		c-0.7-3.9-3-6.2-6.7-7.3c-3-0.9-3.2-1.2-1.7-4.1c1.2-2.4,2.4-4.9,3.2-7.5c1.1-3.6,1.3-7.2,0.6-10.9c-0.2-0.9-0.3-1.7-0.3-2.6
		c0-3.3,1.5-5.4,4.5-6.6C533.7,20.5,536.2,20.5,539.1,20.6z"/>
	<path class="st1" d="M66.3,37.2c0,1.9-0.1,4.4,0,6.9c0.1,1.7,0.4,2.1,2.1,1.8c3.6-0.4,6.2,1.2,8.3,3.8c2,2.4,3.6,5.1,4.3,8.2
		c0.9,3.6-0.1,6.8-2,9.8c-2.7,4.1-6.3,7.2-10.2,10.1c-0.6,0.4-1.2,0.9-1.7,1.3c-1.4,1.1-2.2,2.5-2,4.3c0.5,6.2-0.4,12.3-1.4,18.4
		c0,0.2,0,0.3-0.1,0.5c-0.7,3,0.1,5.3,3,7c2.8,1.6,5,3.9,7,6.4c3.4,4.3,4.3,9,2.8,14.2c-1.1,3.7-2.8,7.2-5.6,9.9
		c-2.5,2.5-5.6,3-8.8,1.4c-1.3-0.7-2.4-1.5-3.5-2.6c-0.4-0.4-0.8-0.8-1.1-1.2c-2.2-2.3-3.5-2.2-4.9,0.6c-1.5,3-3.4,5.8-5.5,8.4
		c-2.8,3.5-6.3,6.1-10.6,7.5c-5,1.6-9.3,0.5-13.1-2.9c-2.2-2-3.4-4.5-3.8-7.3c-0.4-2.9-0.4-5.7,0.3-8.6c0.5-2.2,1.6-4.1,3.3-5.8
		c5.6-5.7,9.7-12.3,12.2-19.8c0.9-2.7,2.2-4.6,4.8-5.9c2.5-1.2,4-3.4,5.3-5.7c2.1-3.8,3.3-8,4.2-12.2c1.7-8.5,3.1-17.1,3.7-25.8
		c0.2-2.6-0.1-5.3-0.6-7.9c-0.7-3.5-2.7-5.9-6-7.3c-1.5-0.7-3-1.1-4.5-1.5c-1.8-0.6-2.2-1.1-2.2-2.9c0-3.8-0.1-7.7,0-11.5
		c0.1-3.8,2-6.4,5.5-7.7c5.1-1.8,10.2-1.7,15.3,0c3.1,1.1,4.9,3.4,5.4,6.8C66.4,30.9,66.1,33.8,66.3,37.2z"/>
	<path class="st1" d="M462.9,79c-1.7-0.4-3.1-0.3-4.4-0.6c-2.8-0.7-4.5-2.4-5.2-5.1c-0.9-3.5-0.9-7,0-10.4c0.9-3.3,3-5.4,6.5-5.9
		c1-0.1,1.9-0.2,2.9-0.2c3.1,0,6.2,0,9.4,0c1.5,0,1.9-0.5,1.9-2.1c0-1.4-0.4-1.8-1.9-1.9c-2.2,0-4.5,0-6.7,0c-4.4,0-6.5-1.6-7.3-6
		c-0.8-3.8-0.8-7.6,0.1-11.4c0.8-3.8,2.8-5.4,6.7-5.5c2.2-0.1,4.5,0,6.7,0c2.3,0,2.3-0.1,2.4-2.2c0-0.2,0-0.3,0-0.5
		c0.2-4.2,1.9-6.4,6-7.2c3.2-0.6,6.5-0.6,9.8,0.2c3.2,0.8,5.1,2.8,5.5,6.1c0.5,3.4,0.5,3.3,3.9,3.6c3.8,0.3,5.7,1.8,6.5,5.5
		c0.9,4.1,0.9,8.3-0.1,12.4c-0.9,3.5-2.9,5-6.5,5.1c-0.4,0-0.8,0-1.2,0c-2.2,0.1-3.1,1.5-2.3,3.5c0.3,0.7,0.9,1,1.5,1
		c3.3,0.1,6.6-0.2,9.4-2.2c1.5-1.1,2.3-2.6,2.9-4.3c1.7-4.6,1.8-9.4,1.2-14.2c-0.3-2.3-0.9-4.5-2.1-6.6c-0.5-0.9-0.9-1.9-1.1-2.9
		c-0.3-2.3,0.7-3.5,3-3.6c0.7,0,1.4,0,2.1,0.3c1,0.3,2,0.7,2.9,1.2c7.1,4,8.9,8.8,6.1,16.5c-1.5,4.1-3.8,7.7-6.2,11.3
		c-0.3,0.5-0.6,0.9-1,1.4c-0.4,0.7-1.2,1.3-0.7,2.1c0.4,0.7,1.3,0.4,2,0.5c1.8,0.2,3.7,0.2,5.5,0.6c4,0.8,5.8,2.8,6.3,6.8
		c0.4,3.2,0.3,6.4-0.4,9.5c-0.1,0.5-0.3,1.1-0.5,1.6c-1.5,3.4-3.5,3.8-6.2,1.2c-2.8-2.6-6.1-3.8-9.8-3.8c-10.7,0-21.4,0-32.1,0.1
		c-6.9,0.1-10.4,4-11.1,11c-0.4,4.2-0.4,8.5,1,12.6c0.1,0.4,0.2,0.8,0.3,1.2c0.2,1-0.2,1.7-1.3,1.8c-1,0.1-2.1,0.3-3.1,0.4
		c-3.5,0.5-6.6,1.7-8.9,4.6c-1.5,1.9-2.6,1.7-3.8-0.4c-1-1.8-1.7-3.8-2-5.9c-0.4-3.7,0.7-6.9,3.7-9.4c2.7-2.1,5.2-4.5,7.6-7
		C461.6,81,462.4,80.2,462.9,79z"/>
	<path class="st1" d="M489.1,154.6c-3.2,0-6.4,0-9.6,0c-3.6,0-5.9-1.7-7-5.1c-1.3-4.2-1.2-8.4,0-12.5c0.7-2.6,2.6-4.2,5.1-4.9
		c1.5-0.4,3.1-0.7,4.7-0.6c1.2,0.1,1.8-0.5,1.9-1.7c0-0.4,0.1-0.8,0.1-1.2c0.1-3-0.3-3.3-3.2-3.1c-5,0.3-10.1,0.5-15.1,0.7
		c-0.5,0-1,0-1.4,0c-4.1-0.3-5.9-1.8-6.8-5.8c-0.6-3.1-0.6-6.2,0-9.3c0.8-4.3,3.5-6.5,8-6.8c3.2-0.3,6.4-0.4,9.6-0.5
		c2.3-0.1,4.6-0.3,6.9-0.4c1.3-0.1,2.5-0.5,3.3-1.6c0.5-0.6,1-1.1,1.6-1.4c1.5-0.7,2.5-0.3,2.9,1.3c0.1,0.4,0.1,0.8,0.1,1.2
		c0,3,1.4,5.4,3.5,7.4c2.2,2.1,4.5,3.8,7.4,4.8c4.9,1.9,9.5,0.8,13.1-3.1c1-1.1,1.9-2.3,2.7-3.6c0.5-0.9,1-1.8,1.5-2.7
		c0.9-1.5,2-2.8,3.9-2.7c2,0,3.1,1.5,3.9,3.1c0.4,0.9,0.8,1.9,1.1,2.9c0.7,3.5,0.9,7,0.2,10.5c-0.5,2.6-2,4.3-4.6,4.9
		c-1.2,0.3-2.5,0.5-3.8,0.6c-3.7,0.2-7.3,0.4-11,0.6c-0.6,0-1.3,0.1-1.9,0.2c-1,0.1-1.7,0.7-1.6,1.7c0.2,2.4-0.8,4.4-2,6.5
		c-2.1,3.7-1.8,7.7-0.7,11.6c0.5,1.9,1.4,3.6,2.2,5.3c1,2.1,0.6,2.9-1.7,3.4c-1.3,0.3-2.7,0.5-4,0.5
		C495.3,154.5,492.2,154.5,489.1,154.6C489.1,154.6,489.1,154.6,489.1,154.6z"/>
	<path class="st1" d="M271.8,24.9c1.3-0.1,2.7,0.2,4.1,0.7c3.1,1.1,6,2.6,8.5,4.8c3.3,2.8,4.5,6.3,3.5,10.5
		c-0.4,1.6-0.8,3.1-1.5,4.5c-3,6.9-6.2,13.7-10,20.1c-0.4,0.6-0.8,1.2-1.2,1.8c-3,4.7-6.3,6.1-12.4,4.8c-3.5-0.7-6.8-2.2-10-4
		c-0.8-0.4-1.5-0.9-2.2-1.5c-3.2-2.6-4.2-5.9-3.2-9.8c0.3-1.3,0.9-2.6,1.6-3.7c3.7-6.9,7.5-13.8,11.2-20.6c0.3-0.6,0.6-1.1,0.9-1.7
		C263.8,26.7,266.7,25,271.8,24.9z"/>
	<path class="st1" d="M210.4,56.9c0.1,2.3-0.7,4.4-2.1,6.2c-3.3,4.2-7.5,7.2-12.7,8.5c-4.1,1.1-7.4-0.2-10.1-3.3
		c-1.3-1.5-2.4-3.2-3.5-4.8c-3.8-5.7-7.5-11.5-11.1-17.4c-0.9-1.5-1.8-3-2.4-4.7c-0.9-2.8-0.7-5.5,1.2-7.7c3.9-4.8,9.1-7.7,15.3-8.7
		c2.7-0.4,5.2,0.6,7.4,2.3c1.1,0.9,2.1,1.9,3,3c4,5,7.8,10.1,11.2,15.6c1.5,2.4,2.8,5,3.5,7.9C210.3,54.7,210.4,55.8,210.4,56.9z"/>
	<path class="st1" d="M388.9,51.6c0,2.4-0.7,4.4-2.2,6.1c-3.1,3.6-7,6.1-11.6,7.2c-4.9,1.1-8.9-0.5-11.5-4.7
		c-1.4-2.2-2.5-4.6-3.8-6.9c-2.3-4.1-4.6-8.2-7.2-12.1c-2-3.1-3.2-6.4-2.6-10.2c0.3-2,1-3.7,2.3-5.2c4.6-5.1,10.2-7.5,17.1-6
		c3,0.6,5.3,2.4,7.2,4.9c1.9,2.5,3.2,5.4,4.6,8.1c2,3.7,3.9,7.3,5.7,11.1C388,46.2,388.7,48.9,388.9,51.6z"/>
	<path class="st1" d="M48.2,59.6c-0.8,9.9-1.7,19.7-4.3,29.3c-0.5,1.8-1.1,3.7-2,5.4c-3.4,6.9-7.4,7.5-13.3,6.2
		c-0.5-0.1-1.1-0.3-1.6-0.5c-5.1-1.8-7.1-4.6-7.2-10c0-2.8,0.4-5.6,1.2-8.3c1.9-6.3,2.7-12.8,3.7-19.3c0.4-2.6,0.5-5.2,1.2-7.8
		c1.4-4.7,4.5-8,11-7.4c2.2,0.2,4.2,0.7,6.3,1.5c3.2,1.3,4.7,3.7,5,6.9C48.3,57.1,48.2,58.3,48.2,59.6z"/>
	<path class="st1" d="M494.8,77.3c5.1,0,10.2,0,15.4,0c6.4,0,10.4,4.1,10.5,10.5c0,3.2-0.9,6.1-2.3,9c-1.8,3.7-3.9,7.3-6.2,10.8
		c-2.4,3.5-5.4,4.5-9.4,3c-2.1-0.8-3.9-2.1-5.5-3.7c-2.4-2.5-2.5-5.4-1.4-8.5c0.4-1.1,0.8-2.1,1.2-3.1c0.4-1.2,0-2-1-2.7
		c-1-0.7-1.8-0.3-2.5,0.4c-0.9,1-1.7,1.5-3.3,1.2c-2-0.4-3.9,0.8-5.4,2.2c-2,1.8-4.3,2.3-6.9,2c-2.6-0.3-4.6-1.5-5.4-4.1
		c-1.3-4.2-1.4-8.5,0-12.7c0.9-2.9,3.2-4.3,6.8-4.3C484.4,77.2,489.6,77.3,494.8,77.3z"/>
	<path class="st2" d="M124.9,78.2c0,3.5,0,7,0,10.6c0,1.9-0.6,2.4-2.4,2.3c-1.7,0-2.3-0.6-2.4-2.3c-0.1-2.1,0-4.2,0-6.2
		c0-4.8,0-9.6,0-14.4c0-2,0.5-2.6,2.2-2.7c2-0.2,2.6,0.4,2.6,2.4C125,71.3,124.9,74.8,124.9,78.2z"/>
	<path class="st3" d="M101.5,78.2c0-3.4,0-6.9,0-10.3c0-2.1,2.2-3.3,4-2.2c0.7,0.4,0.8,1.1,0.8,1.9c0,2.2,0,4.3,0,6.5
		c0,4.9,0,9.7,0,14.6c0,2-1.2,2.9-3.1,2.3c-1.3-0.3-1.7-1.3-1.7-2.5C101.5,85.1,101.5,81.6,101.5,78.2z"/>
	<path class="st3" d="M547.8,67.2c0.2,0,0.3,0,0.5,0c4,0.1,4.2-0.8,3.8,4c-0.3,4-1.1,7.9-2.2,11.7c-0.2,0.5-0.3,1.1-0.6,1.6
		c-0.5,1-1,1.1-1.8,0.2c-0.9-1.2-1.4-2.5-1.9-3.9c-1.2-3.3-1.9-6.7-2.6-10.2c-0.1-0.6-0.1-1.3-0.1-1.9c0-1,0.5-1.5,1.5-1.5
		C545.6,67.2,546.7,67.2,547.8,67.2C547.8,67.2,547.8,67.2,547.8,67.2z"/>
</g>
</svg>
