<?xml version="1.0" encoding="utf-8"?>
<!-- Generator: Adobe Illustrator 21.0.0, SVG Export Plug-In . SVG Version: 6.00 Build 0)  -->
<svg version="1.1" id="图层_1" xmlns="http://www.w3.org/2000/svg" xmlns:xlink="http://www.w3.org/1999/xlink" x="0px" y="0px"
	 viewBox="0 0 246.3 246" style="enable-background:new 0 0 246.3 246;" xml:space="preserve">
<style type="text/css">
	.st0{fill:#FEBB47;}
	.st1{fill:#CE8A17;}
	.st2{fill:#FEAA19;}
	.st3{fill:#FEA811;}
	.st4{fill:#FEC14C;}
	.st5{fill:#FEC14D;}
	.st6{fill:#C98512;}
	.st7{fill:#FEFEFE;}
	.st8{fill:#FEA914;}
	.st9{fill:#FEA305;}
	.st10{fill:#FEA510;}
	.st11{fill:#FEA918;}
	.st12{fill:#FEA711;}
	.st13{fill:#FEA408;}
	.st14{fill:#FEA409;}
	.st15{fill:#FEA916;}
	.st16{fill:#FEA103;}
	.st17{fill:#FEA000;}
	.st18{fill:#FEA30A;}
	.st19{fill:#FEA204;}
	.st20{fill:#FEA50C;}
	.st21{fill:#FE9E00;}
	.st22{fill:#FEA306;}
	.st23{fill:#FEA107;}
	.st24{fill:#FEA917;}
	.st25{fill:#FEA915;}
	.st26{fill:#FEA713;}
	.st27{fill:#FEA50F;}
	.st28{fill:#FEA712;}
	.st29{fill:#FEA60F;}
	.st30{fill:#FEA307;}
	.st31{fill:#FEA002;}
	.st32{fill:#FEA611;}
	.st33{fill:#FEAA18;}
</style>
<g>
	<path class="st0" d="M16.6,193.7c0-4.4,0-8.7,0-13.1c0-43.2,0-86.4,0-129.6c0-8.4-0.1-16.8,0-25.2c0.1-6.5,2.5-11.9,8.3-15.4
		c2.9-1.7,6-2.3,9.3-2.3c19.4,0,38.9,0,58.3,0c20.8,0,41.6,0,62.4,0c18.4,0,36.9,0,55.3,0c3.1,0,6.1,0,9,1.3
		c5.6,2.4,8.9,6.6,10.1,12.5c0.3,1.7,0.4,3.3,0.4,5c0,45.8,0,91.5,0,137.3c0,7.6-0.1,15.3-0.1,22.9c0,0.9,0.3,1.7,0,2.6
		c-1-0.4-0.4-1.2-0.5-1.8c-0.8,3.3-2.9,6-5.6,8.2c-2.7,2.2-5.9,3.6-9.5,3.6c-9.7,0-19.5,0-29.2,0c-0.6,0-1.2-0.1-1.8,0.1
		c-0.2,0.1-0.4,0.1-0.6,0.1c-1.8,0.2-3.1,1.1-4.2,2.5c-4.6,6-9.3,11.9-14,17.8c-1.4,1.8-3.3,3-5.5,3.7c-0.7,0.2-1.4,0.3-2.1,0.1
		c-5.3-0.1-10.6,0-15.9,0c-0.4,0-0.7,0.1-1.1,0.2c-0.6,0.1-1.2,0.1-1.8,0.1c-10.4,0-20.9,0-31.3,0c-0.6,0-1.2,0-1.8-0.1
		c-0.3-0.1-0.7-0.2-1-0.2c-4.8,0-9.7-0.1-14.5,0c-2.2,0.4-4-0.6-5.6-1.9c-1.5-1.3-2.7-2.9-3.9-4.5c-3.7-4.6-7.3-9.3-10.9-14
		c-2-2.6-4.6-4-7.9-3.9c-1.8,0.1-3.7,0.2-5.5-0.1c-5.6-0.1-11.1-0.1-16.7,0c-3.1,0.2-6.2,0.4-9.3-0.2c-4.2-0.9-7.5-3.3-10-6.8
		c-1-1.4-2.2-2.8-2.5-4.3c0.1,1.4,0.1,3,0,4.7C17.1,193.2,17.1,193.6,16.6,193.7z"/>
	<path class="st1" d="M16.6,193.7c0.4-1.5,0.1-3.1,0.2-4.6c0-0.6,0-1.2,0.1-1.8c0.6,1.5,1.5,2.9,2.4,4.3c2.8,4.2,6.5,7,11.6,7.6
		c2.6,0.3,5.2,0.1,7.8,0.1c5.8,0,11.5,0,17.3,0c1.8,0,3.6,0.1,5.4,0c3.3-0.1,5.9,1.3,7.8,3.8c4.4,5.6,8.7,11.2,13.1,16.8
		c1.7,2.2,3.8,3.9,6.8,3.9c5.3,0,10.6,0,15.9,0c11.7,0,23.3,0,35,0c5.8,0,11.5,0,17.3,0c2.9-0.1,5.1-1.6,6.8-3.7
		c4.8-6,9.4-12,14.2-18.1c1.1-1.4,2.4-2.3,4.2-2.5c0.4,0.2,0.9,0.1,1.3,0.1c10,0,20,0,30,0c0.2,0,0.3,0,0.5,0.1v-0.1
		c-5.9,0-11.8,0-17.6,0c-4.2,0-8.3,0-12.5,0c-0.4,0-0.8,0.1-1.2-0.1c0.4-0.4,0.9-0.2,1.4-0.2c9.6,0,19.2-0.1,28.7,0
		c7,0.1,13.8-4.8,15.9-11.4c0.1-0.3,0.1-0.7,0.5-0.9c0.3,0.9-0.2,1.8,0.3,2.6c0.7,7,0,13.5-5.7,18.5c-3.4,2.9-7.4,3.9-11.8,4
		c-7.8,0.2-15.6,0.1-23.4,0c-3.3,0-5.8,1.2-7.9,3.7c-5.4,6.5-11,12.8-16.5,19.2c-1.7,2-3.8,2.9-6.4,2.9c-16.6,0-33.3,0-49.9,0
		c-6.5,0-13,0-19.6,0c-2.7,0-4.8-1-6.5-3c-5.4-6.3-10.9-12.6-16.2-19c-2.2-2.6-4.9-3.9-8.3-3.9c-7.7,0-15.4,0-23.2,0
		c-8.7,0-15.2-4.9-17.5-13.3C16.4,197.2,16.7,195.4,16.6,193.7z"/>
	<path class="st2" d="M31.9,190.3c-2.9-0.2-5.9-2.9-6.7-6c-0.2-0.9-0.3-1.7-0.3-2.6c0-51.3,0-102.6,0-153.9c0-2.2-0.2-4.3,1-6.2
		c1.6-2.5,3.8-4.2,6.9-4.2c59.9,0,119.9,0,179.8,0c4.4,0,7.5,1.9,8.6,6c0.1,0.5,0.2,0.9,0.2,1.4c0,0.1,0,0.2,0,0.2
		c0,52.6,0,105.3,0,157.9c0,0.1,0,0.2,0,0.2c0,3.4-3.9,7.5-6.5,7.2c-0.4-0.2-0.9-0.1-1.3-0.1c-10.7,0-21.4,0-32,0
		c-0.4,0-0.9,0.1-1.1,0c0,0,0.2,0,0.4,0c11.1,0,22.2,0,33.4,0c0.2,0,0.5,0,0.7,0.1c-0.4,0.4-0.9,0.2-1.4,0.2
		c-10.4,0-20.9,0.1-31.3,0c-4.2-0.1-7.2,1.6-9.7,4.8c-4.1,5.5-8.4,10.8-12.6,16.2c-1.9,2.4-4.3,3.5-7.5,3.5c-18.8-0.1-37.7,0-56.5,0
		c-1.3,0-2.6,0.4-4,0.1c-2.5-0.5-4.4-1.8-5.9-3.9c-3.2-4.7-6.9-8.9-10.4-13.4c-1.2-1.6-2.4-3.2-3.8-4.6c-1.8-1.8-3.9-2.7-6.5-2.7
		c-10.6,0.1-21.2,0-31.8,0c-0.5,0-1,0.2-1.5-0.2c0.3-0.2,0.6-0.1,0.9-0.1c10.8,0,21.6,0,32.4,0c0.3,0,0.6-0.1,0.7,0
		c-2,0-4.2,0-6.4,0c-8.8,0-17.7,0-26.5,0C32.8,190.2,32.4,190.1,31.9,190.3z"/>
	<path class="st2" d="M221.5,24.7c0.4,0.4,0.2,0.8,0.2,1.2c0,51.9,0,103.8,0,155.7c0,0.5,0.2,1-0.2,1.5l0,0
		c-0.2-0.4-0.1-0.9-0.1-1.3c0-51.9,0-103.9,0-155.8C221.4,25.6,221.3,25.2,221.5,24.7L221.5,24.7z"/>
	<path class="st3" d="M31.9,190.3c0.3-0.3,0.7-0.2,1-0.2c11.1,0,22.1,0,33.2,0c0.2,0,0.4,0,0.6,0.2c-11.5,0-23,0-34.5,0
		C32.1,190.3,32,190.3,31.9,190.3z"/>
	<path class="st4" d="M157.2,223.7c-0.3,0.3-0.6,0.2-0.9,0.2c-5.2,0-10.4,0-15.6,0c-0.3,0-0.6,0-0.8-0.2c0.3-0.3,0.6-0.3,1-0.3
		c5.1,0,10.2,0,15.3,0C156.6,223.5,157,223.4,157.2,223.7z"/>
	<path class="st5" d="M56,199.2c-0.3,0.3-0.6,0.2-0.9,0.2c-5.2,0-10.3,0-15.5,0c-0.3,0-0.6,0.1-0.9-0.2c0.3-0.4,0.7-0.2,1.1-0.3
		c5,0,10,0,15.1,0C55.2,199,55.6,198.9,56,199.2z"/>
	<path class="st6" d="M182.9,199.5c10.6,0,21.1,0,31.7,0c0,0.1,0,0.2,0,0.3c-0.3,0-0.7,0-1,0c-9.9,0-19.9,0-29.8,0
		c-0.4,0-0.9,0.2-1.2-0.2C182.6,199.5,182.7,199.5,182.9,199.5z"/>
	<path class="st5" d="M104.9,223.7c-0.3,0.3-0.6,0.2-0.9,0.2c-4.7,0-9.4,0-14.1,0c-0.3,0-0.6,0.1-0.9-0.2c0.3-0.3,0.6-0.3,1-0.3
		c4.6,0,9.2,0,13.9,0C104.3,223.5,104.6,223.4,104.9,223.7z"/>
	<path class="st7" d="M189.1,97c0.4,0.3,0.8,0.7,1.2,1c0.5,0.2,0.7,0.6,0.7,1.2c0.7,2.5,0.3,5.1,0.4,7.6c0.1,1.7-0.2,3.4,0,5.1
		c0.2,2.5-1.1,3.9-3,5.1c-0.3,0.2-0.7,0.4-1,0.6c-0.4,0.5-0.9,0.4-1.4,0.5c-4.1,0-8.2,0-12.3,0c-0.5,0-1-0.1-1.4,0.1
		c-0.4,0.3-0.4,0.7-0.4,1.2c0,2.9,0,5.8,0,8.7c0,0.6,0.2,1.1,0.9,1.2c4,0,8,0,12,0c1.9,0,3.6,0.3,4.8,1.8c0.2,0.2,0.4,0.3,0.5,0.5
		c0.4,0.2,0.8,0.4,0.8,0.9c0.5,0.7,0.4,1.5,0.6,2.2c0.1,4,0,7.9,0,11.9c-0.1,1.7-1,2.9-2.4,3.8c-1.3,0.8-2.6,1.5-4.2,1.6
		c-4.1,0-8.2,0-12.3,0c-1.2,0.1-1.1,1.3-1.6,2.1c-0.6,1.4-1.1,2.8-2,4.1c0,0.5-0.2,0.8-0.7,0.9c-1.7,1.8-3.6,3.2-5.8,4.3
		c-1,0.6-2.1,1.1-3.3,1c-7.4,0-14.9,0-22.3,0c-14.4,0-28.9-0.2-43.3,0.1c-5.8,0.1-12.3-4.1-14.3-9.6c-0.2-0.6-0.5-1.2-0.7-1.8
		c-0.3-1-0.9-1.4-1.9-1.4c-4.1,0-8.2,0.1-12.2,0c-3-0.1-5.5-1.2-7.1-3.9c-0.4-0.5-0.5-1.1-0.5-1.7c0-3.8,0-7.6,0-11.4
		c0-0.6,0.1-1.1,0.5-1.6c1.3-2,3.1-3.3,5.4-3.8c0.6-0.4,1.2-0.3,1.8-0.3c4.1,0.4,8.3,0,12.4,0.1c0.4,0,0.7-0.1,1-0.3
		c0.2-0.1,0.2-0.3,0.2-0.5c0-3.3,0.1-6.5-0.1-9.8c-0.2-0.2-0.4-0.4-0.7-0.5c-5-0.1-10.1,0-15.1-0.1c-0.2,0-0.4-0.1-0.6-0.3
		c-1.9-0.7-3.2-2-4.4-3.6c-0.4-0.5-0.5-1.1-0.5-1.8c0-3.5,0-7,0-10.5c0-0.7,0.1-1.4,0.5-2.1c0.2-0.5,0.5-1,0.7-1.5
		c0.2-0.6,0.5-1.1,1.2-1.2c2.2-1.3,4.5-1.6,7-1.6c1.2-0.3,2.4-0.1,3.6-0.1c2.6,0,5.2-0.2,7.7,0.1c0.3,0,0.5,0.1,0.7-0.2
		c0.1-3.3,0-6.6,0-10c0-0.2-0.1-0.4-0.2-0.6c-0.4-0.4-0.9-0.2-1.4-0.2c-4.3,0-8.6,0-12.9,0c-1.5,0-2.9-0.4-4.2-1.2
		c-0.7-0.2-1.2-0.8-1.5-1.5c-0.1-0.2-0.3-0.4-0.4-0.5c-0.6-0.6-0.7-1.4-0.7-2.2c0-3.8,0-7.6,0-11.4c0-0.8,0.2-1.6,0.7-2.2
		c1.5-2.1,3.7-2.8,6-3.4c0.2-0.2,0.4-0.1,0.6-0.2c4.6-0.1,9.1,0,13.7,0c0.5-0.3,0.6-0.8,0.7-1.3c1.3-3.7,3.4-6.7,6.7-8.9
		c1.6-1,3.3-1.6,5.1-2c0.4-0.4,1-0.3,1.5-0.3c21.9,0,43.8,0,65.7,0c0.5,0,1-0.1,1.4,0.3c2.2,0.4,4.1,1.3,6,2.4
		c0.3,0,0.6,0.1,0.7,0.5c1.6,1.3,2.8,2.9,3.9,4.6c0.5,0.5,0.9,1.1,0.9,1.9c0.1,0.3,0.2,0.6,0.3,0.9c0.4,2.2,0.5,2.3,2.7,2.2
		c1.4,0,2.7,0,4.1,0c2.5-0.2,5.1-0.5,7.6,0c1.2,0.3,2.6,0.4,3.6,1.5c1.9,1.3,2.4,3.2,2.3,5.4c-0.1,3.1-0.1,6.3,0,9.5
		c0.2,3.2-2.6,5.9-6.1,6c-3.3,0-6.5,0-9.8,0c-1.1,0-2.3-0.2-3.4,0.2c-0.2,0.5-0.2,1.1-0.2,1.6c0,3,0,6,0,8.9
		c0.1,0.3,0.4,0.3,0.7,0.2c0.5-0.2,1-0.1,1.5-0.1c3.8,0.1,7.5-0.2,11.3,0.1C186.8,95.7,188,96.1,189.1,97z"/>
	<path class="st7" d="M178.4,44.2c-3.1,0-6.2,0-9.4,0c-1.7,0-2.5-0.7-2.7-2.5c-0.4-3.9-0.2-7.8-0.2-11.7c0-1.6,0.1-3.3,0.2-4.9
		c0.1-2.3,0.9-3,3.1-3c5.8,0,11.7-0.1,17.5-0.1c1.7,0,2.3,0.5,2.5,2c0.2,1.9-0.4,2.5-2.3,2.5c-2,0-4,0-6,0c-1.3,0-1.7,0.3-1.7,1.6
		c0,3.6-0.4,3,2.9,3c1.2,0,2.4,0,3.6,0c0.9,0,1.4,0.5,1.5,1.4c0.2,2.3-0.1,2.7-2.5,2.7c-1.4,0-2.8,0-4.2,0c-0.9,0-1.3,0.4-1.3,1.3
		c-0.2,3-0.2,3.1,2.9,3.1c1.9,0,3.8,0,5.8,0c1.5,0,2.2,0.7,1.9,2.2c-0.2,1.6-0.6,2.7-2.8,2.6C184.3,44.1,181.3,44.2,178.4,44.2z"/>
	<path class="st7" d="M205,44.2c-3.1,0-6.2,0-9.2,0c-1.8,0-2.6-0.7-2.8-2.4c-0.2-3.8-0.3-7.7-0.2-11.5c0-1.6,0.1-3.3,0.2-4.9
		c0.2-3,1.2-3.3,3.5-3.3c5.8,0,11.5-0.1,17.3-0.1c1.5,0,2.1,0.4,2.4,1.7c0.4,1.9-0.3,2.8-2.2,2.8c-2,0-4,0-6,0
		c-1.4,0-1.8,0.4-1.8,1.8c0,3.3-0.4,2.8,2.9,2.9c1.2,0,2.5,0,3.7,0c0.9,0,1.3,0.5,1.4,1.3c0.3,2.3-0.1,2.7-2.4,2.7
		c-1.4,0-2.8,0-4.2,0c-1,0-1.4,0.5-1.4,1.5c-0.1,2.9-0.1,2.9,2.8,2.9c2,0,3.9,0,5.9,0c1.5,0,1.9,0.5,1.9,2c0,2-0.9,2.8-2.8,2.8
		C210.9,44.2,208,44.2,205,44.2z"/>
	<path class="st8" d="M221.5,24.7c0,52.8,0,105.6,0,158.4c-0.4-0.4-0.2-0.8-0.2-1.2c0-52,0-103.9,0-155.9
		C221.3,25.6,221.1,25.1,221.5,24.7z"/>
	<path class="st9" d="M159.3,49.7c-22.4,0-44.7,0-67.1,0c-0.5,0-1,0-1.4,0c-0.3,0-0.5-0.1-0.8-0.1c0-0.1,0-0.2,0-0.2
		c23.4,0,46.7,0,70.2,0C159.9,49.8,159.6,49.6,159.3,49.7z"/>
	<path class="st10" d="M78.1,118.1c0.1,0.1,0.3,0.2,0.4,0.3c0.3,1.4,0.1,2.8,0.1,4.1c0,2.2,0.2,4.4-0.1,6.5c-0.4,0.5-1,0.4-1.6,0.4
		c-4.7,0-9.3,0-14,0c-0.2,0-0.4-0.1-0.7-0.1c1.3-0.5,2.5-0.3,3.7-0.2c3.7,0.1,7.4,0,11,0c0.9,0,1.3-0.4,1.3-1.3c0-2.8,0-5.5,0-8.3
		c0-1-0.3-1.2-1.3-1.2c-4.6,0-9.1,0-13.7,0c-0.5,0-1.1,0-1.5-0.3c-0.4-0.2,0.1-0.2,0.2-0.3c0.1,0,0.3,0,0.4,0.1
		c1.6,0.2,3.1,0.1,4.7,0.1C70.8,118.1,74.4,117.9,78.1,118.1z"/>
	<path class="st11" d="M186.3,117.9c0.4-0.1,0.8-0.2,1.1-0.3c0.2,0.1,0.6,0.1,0.1,0.3c-0.7,0.3-1.4,0.4-2.2,0.4c-3.9,0-7.8,0-11.7,0
		c-1.1,0-1.5,0.3-1.5,1.4c0.1,2.7,0,5.4,0,8c0,0.5,0,1,0.5,1.4c0.1,0.1,0.1,0.1,0.1,0.2c0,0.1-0.1,0.1-0.1,0.1
		c-0.6,0.2-0.9-0.1-0.9-0.7c0-3.3,0-6.6,0-9.9c0-0.3,0.1-0.6,0.4-0.7c1-0.2,2.1-0.1,3.1-0.1C178.9,117.9,182.6,118.1,186.3,117.9z"
		/>
	<path class="st12" d="M215.1,190.3c-11.7,0-23.3,0-35.1,0c0.3-0.4,0.7-0.2,1-0.2c10.9,0,21.9,0,32.8,0
		C214.2,190.1,214.7,190,215.1,190.3L215.1,190.3z"/>
	<path class="st13" d="M57.9,65.6c-0.4,0.9-0.5,1.9-0.5,2.9c0,3.4,0,6.9,0,10.3c0,0.9,0.1,1.7,0.5,2.5c-1.1-0.3-0.9-1.3-1-2
		c-0.1-2.1,0-4.1,0-6.2c0-1.8-0.1-3.7,0-5.5C57,66.9,56.8,65.9,57.9,65.6z"/>
	<path class="st13" d="M57.6,133.2c-0.3,0.9-0.2,1.9-0.2,2.8c0,3.1,0,6.2,0,9.3c0,0.8,0,1.7,0.2,2.5c-0.1,0.1-0.1,0.5-0.3,0.2
		c-0.3-0.5-0.5-1.2-0.5-1.8c0-3.8,0-7.6,0-11.5c0-0.7,0.2-1.2,0.6-1.7h0.1C57.6,133.1,57.6,133.1,57.6,133.2z"/>
	<path class="st14" d="M57.6,99.9c-0.5,4.4-0.1,8.9-0.2,13.3c0,0.3,0.1,0.7,0.2,1c-0.8,0.1-0.6-0.7-0.6-0.9c0-4.3-0.3-8.6,0.1-12.9
		c0-0.3,0.1-0.6,0.3-0.8h0.1C57.6,99.7,57.6,99.8,57.6,99.9z"/>
	<path class="st13" d="M78.3,61.9c-0.3,0.3-0.6,0.3-1,0.3c-4.3,0-8.6,0-12.9,0c-0.1-0.1-0.1-0.1-0.1-0.2c0-0.1,0.1-0.1,0.1-0.1
		c0.2-0.3,0.6-0.2,0.9-0.2c4.1,0,8.1,0,12.2,0C77.7,61.7,78,61.6,78.3,61.9z"/>
	<path class="st15" d="M171.1,154c0.1-0.9,0-1.8,1.2-2.1c2.9-0.2,5.7,0,8.6-0.1c1.5,0,2.9,0.1,4.4-0.1c1.4-0.1,2.6-0.9,3.8-1.5
		c0.1,0.1,0.1,0.1,0.1,0.2c0,0.1,0,0.1-0.1,0.1c-1.2,1.1-2.6,1.6-4.2,1.7c-3.6,0.1-7.3,0-10.9,0c-1.9,0-1.9,0-2.6,1.8
		C171.3,154.3,171.2,154.6,171.1,154z"/>
	<path class="st16" d="M191.3,146.9c0-3.5,0-7,0-10.5c0-0.6,0.1-1.1,0.1-1.7c0.1-0.3-0.1-0.7,0.3-1.1c0,4.5,0,8.9,0,13.3
		C191.6,147,191.5,147,191.3,146.9z"/>
	<path class="st17" d="M171.9,95.3c-0.3-0.3-0.2-0.7-0.2-1c0-2.8,0-5.7,0-8.5c0-0.4-0.1-0.8,0.4-1.1c0.7,0,1.5,0,2.2,0
		c-2.1,0.4-2.2,0.4-2.1,2.8c0,2.5,0.1,5,0.1,7.5C172.2,95.2,172.1,95.3,171.9,95.3z"/>
	<path class="st18" d="M189.1,97c-2.3-1.3-4.8-1.5-7.4-1.4c-3,0.1-6.1,0-9.1,0c0.4-0.4,0.8-0.2,1.2-0.2c3.7,0,7.3,0,11,0
		c1.5,0,2.9,0.6,4.2,1.3C189.2,96.7,189.4,96.8,189.1,97z"/>
	<path class="st19" d="M78.5,85c0.3,3.4,0.4,6.9,0,10.3c-0.2,0-0.3-0.1-0.3-0.3c0-3.3,0.1-6.7,0.1-10C78.3,84.9,78.4,84.9,78.5,85z"
		/>
	<path class="st20" d="M78.5,85c-0.1,0-0.1,0-0.2,0c-5.1,0-10.2,0-15.3,0c0-0.1,0-0.2,0-0.2c5.1,0,10.2,0,15.3,0
		C78.3,84.8,78.4,84.9,78.5,85z"/>
	<path class="st21" d="M172.6,129.4c0-0.1,0-0.2,0-0.2c4.1,0,8.2,0,12.2,0c0.3-0.1,0.3,0,0.2,0.2
		C180.9,129.5,176.7,129.5,172.6,129.4z"/>
	<path class="st22" d="M185.8,62.4c-2.6-0.5-5.3,0-7.9-0.2c1.3-0.4,2.7-0.5,4.1-0.5c0.7,0.2,1.4,0.2,2.2,0c0.5,0.3,1.2,0.1,1.7,0.5
		C185.9,62.2,185.9,62.3,185.8,62.4L185.8,62.4z"/>
	<path class="st23" d="M77.8,95.5c-3.8,0.1-7.5,0.1-11.3,0c0.2-0.3,0.6-0.2,0.9-0.2c3.2,0,6.4,0,9.5,0
		C77.2,95.3,77.6,95.2,77.8,95.5z"/>
	<path class="st24" d="M185.1,129.4c-0.1-0.1-0.2-0.2-0.2-0.2c1.4-0.3,4.1,0.6,4.9,1.7c0,0-0.1,0.2-0.1,0.3
		C188.2,130,186.7,129.5,185.1,129.4z"/>
	<path class="st25" d="M191.3,146.9c0.1,0,0.3,0,0.4,0c-0.3,1.6-1.1,2.9-2.6,3.6c0-0.1,0-0.2,0-0.3
		C190.3,149.4,191.1,148.3,191.3,146.9z"/>
	<path class="st26" d="M159.4,164.4c1.1-0.3,2.2-0.7,3.3-1C162.2,164.3,160.4,164.8,159.4,164.4z"/>
	<path class="st26" d="M185.8,62.4c0-0.1,0-0.2,0-0.2c1.2-0.1,2.2,0.5,3.3,1.1c0.2,0.1,0.2,0.3,0,0.4
		C188,63.3,186.9,62.8,185.8,62.4z"/>
	<path class="st11" d="M170.8,59.1c-0.3-0.6-0.6-1.2-0.9-1.9C170.7,57.4,171.2,58.3,170.8,59.1z"/>
	<path class="st27" d="M58.3,81.9c0.5,0.5,1,1,1.5,1.5C58.8,83.3,58.3,82.8,58.3,81.9z"/>
	<path class="st28" d="M191,99.2c-0.2-0.4-0.5-0.8-0.7-1.2C191.2,98.1,191.3,98.4,191,99.2z"/>
	<path class="st29" d="M59.5,97.2c-0.4,0.4-0.8,0.8-1.2,1.2C58.3,97.6,58.7,97.1,59.5,97.2z"/>
	<path class="st28" d="M168.5,159.1c0.2-0.3,0.4-0.6,0.7-0.9C169.4,158.8,169.2,159.1,168.5,159.1z"/>
	<path class="st19" d="M184.1,61.7c-0.7,0.4-1.4,0.4-2.2,0C182.7,61.7,183.4,61.7,184.1,61.7z"/>
	<path class="st30" d="M190.9,132.5c-0.3-0.3-0.5-0.6-0.8-0.9C190.7,131.5,191,131.8,190.9,132.5z"/>
	<path class="st27" d="M166,52.6c-0.2-0.2-0.4-0.3-0.7-0.5C165.9,51.9,166.1,52,166,52.6z"/>
	<path class="st31" d="M64.3,61.9c0,0.1,0,0.2,0,0.2c-0.1,0-0.3,0-0.4,0c-0.2,0-0.4-0.1-0.6-0.1C63.7,61.8,64,62,64.3,61.9z"/>
	<path class="st2" d="M104.7,61.2c3.5,2.3,4.6,7.7,2.5,11.7c-0.3,0.6-0.6,1.3-1.2,1.7c-0.7,0.3-1.1,1-1.7,1.4l0,0
		c-1.5,1-3.1,1.6-4.8,1.9c-1.9,0.2-3.8-0.3-5.5-1.2c-0.4-0.1-0.6-0.5-1-0.4c-1-0.5-1.6-1.3-2.2-2.2c-0.4-1.3-1.2-2.3-1.4-3.6
		C89,69,89,67.4,89.5,65.9c0.2-1.1,1-1.9,1.2-3c2.8-3.8,7.7-5.1,11.6-3.1C102.9,60.5,103.9,60.8,104.7,61.2z"/>
	<path class="st15" d="M89.8,65.8c-0.9,2.6-0.5,5.1,0.8,7.6c0.1,0.3,0.7,0.5,0.1,0.9c-2.1-2.9-2.5-5.9-1.2-9.2
		C89.8,65.2,89.5,65.6,89.8,65.8z"/>
	<path class="st24" d="M93.6,76.6c1.4,0.4,2.7,1.1,4.1,1.2c1.9,0.1,3.7-0.2,5.4-1.2c0.3-0.2,0.7-0.4,1.1-0.4
		c-1.1,1.3-2.6,1.8-4.3,1.9c-1,0.1-2,0.2-3,0c-1.2,0-2.3-0.5-3.3-1.2C93.5,76.8,93.5,76.7,93.6,76.6z"/>
	<path class="st2" d="M78.1,118.1c-5,0-9.9,0-14.9,0c-0.3,0-0.6,0-0.8-0.2c4.8,0,9.6,0,14.4,0C77.3,117.9,77.7,117.8,78.1,118.1z"/>
	<path class="st2" d="M186.3,117.9c-0.3,0.3-0.7,0.2-1,0.2c-4.4,0-8.8,0-13.2,0c0.5-0.3,1.1-0.2,1.6-0.2
		C177.9,117.9,182.1,117.9,186.3,117.9z"/>
	<path class="st2" d="M185.3,151.7c-0.2,0.3-0.6,0.2-0.9,0.2c-4,0-8.1,0-12.1,0c0.8-0.3,1.7-0.2,2.5-0.2
		C178.3,151.7,181.8,151.7,185.3,151.7z"/>
	<path class="st2" d="M78.5,129.1c0-3.6,0-7.1,0-10.7c0.2,0.1,0.2,0.3,0.2,0.5c0,3.2,0,6.5,0,9.7C78.7,128.8,78.6,128.9,78.5,129.1z
		"/>
	<path class="st24" d="M104.7,61.2c-1.1,0-1.8-0.9-2.6-1.4c0.1,0,0.2-0.1,0.3-0.1C103.1,60.2,104.1,60.4,104.7,61.2z"/>
	<path class="st32" d="M89.8,65.8c-0.3-0.2-0.2-0.5-0.3-0.8c0.2-0.8,0.7-1.5,1.2-2.1c0.4,0.2,0.2,0.4,0,0.7
		C90.3,64.3,89.8,64.9,89.8,65.8z"/>
	<path class="st9" d="M104.2,76.1c0.5-0.6,0.8-1.4,1.7-1.4C105.4,75.3,105,76,104.2,76.1z"/>
	<path class="st33" d="M96.9,78c1,0,2,0,3,0C98.9,78.3,97.9,78.3,96.9,78z"/>
	<path class="st33" d="M93.6,76.6c0,0.1,0,0.2,0,0.3c-0.2-0.2-0.5-0.3-0.7-0.5C93.3,75.9,93.4,76.3,93.6,76.6z"/>
</g>
</svg>
